# AST/ASF file generated using VICON BodyLanguage
# -----------------------------------------------
:version 1.10
:name VICON
:units
  mass 1.0
  length 0.45
  angle deg
:documentation
   .ast/.asf automatically generated from VICON data using
   VICON BodyBuilder and BodyLanguage model FoxedUp or BRILLIANT.MOD
:root
   order TX TY TZ RX RY RZ
   axis XYZ
   position 0 0 0  
   orientation 0 0 0 
:bonedata
  begin
     id 1 
     name lhipjoint
     direction 0.630082 -0.636569 0.44472 
     length 2.82754 
     axis 0 0 0  XYZ
  end
  begin
     id 2 
     name lfemur
     direction 0.34202 -0.939693 0  
     length 7.26371  
     axis 0 0 20  XYZ
    dof rx ry rz
    limits (-160.0 20.0)
           (-70.0 70.0)
           (-60.0 70.0)
  end
  begin
     id 3 
     name ltibia
     direction 0.34202 -0.939693 0   
     length 7.88616   
     axis 0 0 20   XYZ
    dof rx
    limits (-10.0 170.0)
  end
  begin
     id 4 
     name lfoot
     direction 0.0603448 -0.165796 0.984312   
     length 1.77861   
     axis -90 7.62852e-016 20   XYZ
    dof rx rz
    limits (-45.0 90.0)
           (-70.0 20.0)
  end
  begin
     id 5 
     name ltoes
     direction 1.53577e-011 -4.21876e-011 1   
     length 0.902235   
     axis -90 7.62852e-016 20   XYZ
    dof rx
    limits (-90.0 20.0)
  end
  begin
     id 6 
     name rhipjoint
     direction -0.656778 -0.61817 0.431866   
     length 2.9117  
     axis 0 0 0  XYZ 
  end
  begin
     id 7 
     name rfemur
     direction -0.34202 -0.939693 0   
     length 6.81603   
     axis 0 0 -20   XYZ
    dof rx ry rz
    limits (-160.0 20.0)
           (-70.0 70.0)
           (-70.0 60.0)
  end
  begin
     id 8 
     name rtibia
     direction -0.34202 -0.939693 0   
     length 8.05997   
     axis 0 0 -20   XYZ
    dof rx
    limits (-10.0 170.0)
 end
 begin
     id 9 
     name rfoot
     direction -0.0862404 -0.236944 0.967688   
     length 1.84899  
     axis -90 -7.62852e-016 -20   XYZ
    dof rx rz
    limits (-45.0 90.0)
           (-20.0 70.0)
  end
  begin
     id 10 
     name rtoes
     direction -1.53561e-011 -4.21798e-011 1   
     length 0.931579   
     axis -90 -7.62852e-016 -20   XYZ
    dof rx
    limits (-90.0 20.0)
  end
  begin
     id 11 
     name lowerback
     direction -0.0110203 0.991769 -0.127564   
     length 2.05686   
     axis 0 0 0   XYZ
    dof rx ry rz
    limits (-20.0 45.0)
           (-30.0 30.0)
           (-30.0 30.0)
  end
  begin
     id 12 
     name upperback
     direction 0.0109719 0.99993 -0.00432479   
     length 2.06234   
     axis 0 0 0   XYZ
    dof rx ry rz
    limits (-20.0 45.0)
           (-30.0 30.0)
           (-30.0 30.0)
  end
  begin
     id 13 
     name thorax
     direction 0.0173308 0.998351 0.0547306   
     length 2.09856   
     axis 0 0 0   XYZ
    dof rx ry rz
    limits (-20.0 45.0)
           (-30.0 30.0)
           (-30.0 30.0)
  end
  begin
     id 14 
     name lowerneck
     direction -0.0311736 0.989033 0.144366   
     length 1.98151   
     axis 0 0 0   XYZ
    dof rx ry rz
    limits (-20.0 45.0)
           (-30.0 30.0)
           (-30.0 30.0)
  end
  begin
     id 15 
     name upperneck
     direction 0.0421057 0.975772 -0.214698   
     length 2.01457   
     axis 0 0 0   XYZ
    dof rx ry rz
    limits (-20.0 45.0)
           (-30.0 30.0)
           (-30.0 30.0)
  end
  begin
     id 16
     name head
     direction 0.0136911 0.995958 -0.0887718  
     length 2.03562  
     axis 0 0 0   XYZ
    dof rx ry rz
    limits (-20.0 45.0)
           (-30.0 30.0)
           (-30.0 30.0)
  end
  begin
     id 17 
     name lclavicle
     direction 0.915335 0.396201 0.0720134  
     length 4.16217  
     axis 0 0 0   XYZ
    dof ry rz
    limits (-20.0 10.0)
           (0.0 20.0)
  end
  begin
     id 18 
     name lhumerus
     direction 1 -4.48965e-011 6.383e-018   
     length 4.93042   
     axis -180 -30 -90   XYZ
    dof rx ry rz
    limits (-60.0 90.0)
           (-90.0 90.0)
           (-90.0 90.0)
  end
  begin
     id 19
     name lradius
     direction 1 -4.48972e-011 8.8689e-027   
     length 3.68177   
     axis -180 -30 -90   XYZ
    dof rx
    limits (-10.0 170.0)
  end
  begin
     id 20
     name lwrist
     direction 1 -4.48953e-011 1.17971e-026   
     length 1.84089   
     axis -7.69454e-015 90 90   XYZ
    dof ry
    limits (-180.0 0.0)
 end
  begin
     id 21 
     name lhand
     direction 1 -4.49027e-011 2.35802e-026   
     length 0.721479   
     axis -1.50533e-014 90 90   XYZ
    dof rx rz
    limits (-90.0 90.0)
           (-45.0 45.0)
  end
  begin
     id 22 
     name lfingers
     direction 1 -4.48915e-011 4.72027e-026   
     length 0.581675   
     axis -3.01059e-014 90 90   XYZ
    dof rx
    limits (0.0 90.0)
  end
  begin
     id 23
     name lthumb
     direction 0.707107 -6.34948e-011 0.707107   
     length 0.835172   
     axis -90 45 -5.12164e-014   XYZ
    dof rx rz
    limits (-45.0 45.0)
           (-45.0 45.0)
  end
  begin
     id 24 
     name rclavicle
     direction -0.882781 0.469197 0.0234974   
     length 3.95647  
     axis 0 0 0   XYZ 
    dof ry rz
    limits (-10.0 20.0)
           (-20.0 0.0)
  end
  begin
     id 25 
     name rhumerus
     direction -1 -4.48965e-011 -1.54906e-018  
     length 5.07905   
     axis -180 30 90   XYZ
    dof rx ry rz
    limits (-90.0 60.0)
           (-90.0 90.0)
           (-90.0 90.0)
  end
  begin
     id 26 
     name rradius
     direction -1 -4.48972e-011 5.47489e-027   
     length 3.54394   
     axis -180 30 90   XYZ
    dof rx
    limits (-10.0 170.0)
  end
  begin
     id 27 
     name rwrist
     direction -1 -4.48955e-011 1.17969e-026   
     length 1.77197   
     axis -7.69454e-015 -90 -90   XYZ
    dof ry
    limits (-180.0 0.0)
  end
  begin
     id 28
     name rhand
     direction -1 -4.48982e-011 2.35888e-026   
     length 0.681156   
     axis -1.50533e-014 -90 -90   XYZ
    dof rx rz
    limits (-90.0 90.0)
           (-45.0 45.0)
  end
  begin
     id 29
     name rfingers
     direction -1 -4.48955e-011 4.71877e-026   
     length 0.549165   
     axis -3.01059e-014 -90 -90   XYZ
    dof rx
    limits (0.0 90.0)
  end
  begin
     id 30
     name rthumb
     direction -0.707107 -6.3491e-011 0.707107   
     length 0.788495   
     axis -90 -45 5.12164e-014   XYZ
    dof rx rz
    limits (-45.0 45.0)
           (-45.0 45.0)
  end
:hierarchy
  begin
    root lhipjoint rhipjoint lowerback
    lhipjoint lfemur
    lfemur ltibia
    ltibia lfoot
    lfoot ltoes
    rhipjoint rfemur
    rfemur rtibia
    rtibia rfoot
    rfoot rtoes
    lowerback upperback
    upperback thorax
    thorax lowerneck lclavicle rclavicle
    lowerneck upperneck
    upperneck head
    lclavicle lhumerus
    lhumerus lradius
    lradius lwrist
    lwrist lhand lthumb
    lhand lfingers
    rclavicle rhumerus
    rhumerus rradius
    rradius rwrist
    rwrist rhand rthumb
    rhand rfingers
  end

#!OML:ASF H:\Bending\Project 1\Capture day 1\Session 1\Subject.ASF
:FULLY-SPECIFIED
:DEGREES
283
root -8.83395 18.084 -16.3876 134.197 91.0852 126.282
lowerback 5.83739 0.32849 0.177327
upperback -2.3016 0.636772 2.78511
thorax -5.7036 0.377883 2.7327
lowerneck -25.9369 -2.78397 -4.58651
upperneck 30.4367 -2.24 1.51186
head 15.0399 -1.13763 0.991728
rclavicle -5.96354e-016 -1.11319e-014
rhumerus 9.05922 14.1497 -83.9397
rradius 68.0954
rwrist 1.50213
rhand -20.799 -36.1066
rfingers 7.12502
rthumb 5.56841 -66.0134
lclavicle -5.96354e-016 -1.11319e-014
lhumerus 9.66977 -19.3647 85.0558
lradius 65.0609
lwrist 57.2143
lhand -31.0864 22.5686
lfingers 7.12502
lthumb -4.36653 52.5036
rfemur 1.33297 -6.4784 16.263
rtibia 1.59028e-015
rfoot -9.31462 -12.4507
rtoes 1.50365
lfemur -11.3021 -13.5831 -13.1057
ltibia 22.2828
lfoot -23.6925 18.7209
ltoes -27.9465
284
root -8.81864 18.0853 -16.3862 133.158 91.0815 125.154
lowerback 5.80044 0.342592 0.142073
upperback -2.32167 0.649753 2.74492
thorax -5.70396 0.38462 2.70927
lowerneck -26.0389 -2.79422 -4.54141
upperneck 30.5096 -2.31655 1.63985
head 15.099 -1.14463 1.02214
rclavicle -6.55989e-015 -4.53229e-014
rhumerus 9.3756 14.0875 -83.8751
rradius 67.5045
rwrist 1.23763
rhand -21.1515 -36.1823
rfingers 7.12502
rthumb 5.22803 -66.0978
lclavicle -6.55989e-015 -4.53229e-014
lhumerus 10.1626 -19.6473 84.7318
lradius 64.4251
lwrist 57.18
lhand -30.9743 22.4469
lfingers 7.12502
lthumb -4.25832 52.3841
rfemur 1.28754 -6.50313 16.2792
rtibia -9.54166e-015
rfoot -9.39293 -12.4144
rtoes 2.00589
lfemur -11.3048 -13.8048 -13.0814
ltibia 22.2311
lfoot -23.8558 18.8798
ltoes -27.9589
285
root -8.80299 18.0854 -16.3856 131.592 91.0833 123.531
lowerback 5.76455 0.352151 0.132738
upperback -2.32585 0.65854 2.70698
thorax -5.68775 0.388185 2.67392
lowerneck -26.129 -2.81617 -4.53598
upperneck 30.5389 -2.39932 1.7798
head 15.1371 -1.15752 1.0627
rclavicle -1.59028e-015 1.66979e-014
rhumerus 9.74759 14.0796 -83.7526
rradius 66.7376
rwrist 0.911564
rhand -21.5074 -36.2877
rfingers 7.12502
rthumb 4.88438 -66.2114
lclavicle -1.59028e-015 1.66979e-014
lhumerus 10.6957 -19.9562 84.4196
lradius 63.6916
lwrist 57.1989
lhand -31.0192 22.2329
lfingers 7.12502
lthumb -4.30165 52.1692
rfemur 1.27738 -6.52935 16.3025
rtibia 1.43125e-014
rfoot -9.45471 -12.3856
rtoes 2.33108
lfemur -11.2812 -14.0592 -13.0584
ltibia 22.1989
lfoot -24.038 19.0549
ltoes -27.9309
286
root -8.78744 18.0846 -16.3853 129.794 91.0954 121.699
lowerback 5.73508 0.353966 0.138639
upperback -2.3142 0.658332 2.67579
thorax -5.65807 0.386722 2.63792
lowerneck -26.2131 -2.83832 -4.56328
upperneck 30.5199 -2.46687 1.91202
head 15.1519 -1.16968 1.10815
rclavicle -1.19271e-015 -1.11319e-014
rhumerus 10.1715 14.1016 -83.6047
rradius 65.8931
rwrist 0.652158
rhand -21.7888 -36.4189
rfingers 7.12502
rthumb 4.61266 -66.3487
lclavicle -1.19271e-015 -1.11319e-014
lhumerus 11.2521 -20.2106 84.132
lradius 62.9214
lwrist 57.2809
lhand -31.1788 22.0198
lfingers 7.12502
lthumb -4.45582 51.953
rfemur 1.29595 -6.55082 16.3376
rtibia 1.59028e-014
rfoot -9.49806 -12.3721
rtoes 2.40805
lfemur -11.2403 -14.3045 -13.0322
ltibia 22.1833
lfoot -24.2286 19.204
ltoes -27.7494
287
root -8.77226 18.0835 -16.3846 127.77 91.1175 119.655
lowerback 5.70419 0.344592 0.156404
upperback -2.28539 0.64382 2.64825
thorax -5.60882 0.377605 2.60045
lowerneck -26.2957 -2.84956 -4.59813
upperneck 30.4491 -2.50607 2.01513
head 15.1411 -1.17593 1.14777
rclavicle -6.95746e-016 -2.38542e-014
rhumerus 10.647 14.1175 -83.4747
rradius 65.0684
rwrist 0.544918
rhand -21.9514 -36.5644
rfingers 7.12502
rthumb 4.45572 -66.4975
lclavicle -6.95746e-016 -2.38542e-014
lhumerus 11.8317 -20.3431 83.8655
lradius 62.1688
lwrist 57.3703
lhand -31.3378 21.9221
lfingers 7.12502
lthumb -4.60931 51.8519
rfemur 1.33356 -6.56949 16.388
rtibia -1.59028e-015
rfoot -9.53109 -12.3756
rtoes 2.27362
lfemur -11.1972 -14.4975 -12.9967
ltibia 22.1819
lfoot -24.4083 19.2875
ltoes -27.3805
288
root -8.75758 18.0824 -16.3832 125.389 91.1436 117.257
lowerback 5.6748 0.324447 0.169526
upperback -2.24813 0.614749 2.62752
thorax -5.5511 0.361525 2.57419
lowerneck -26.3751 -2.84679 -4.61837
upperneck 30.3359 -2.5131 2.06501
head 15.1078 -1.17552 1.16854
rclavicle -4.17448e-015 -2.62396e-014
rhumerus 11.1627 14.1034 -83.3836
rradius 64.3243
rwrist 0.596881
rhand -22.0017 -36.712
rfingers 7.12502
rthumb 4.40717 -66.6461
lclavicle -4.17448e-015 -2.62396e-014
lhumerus 12.4338 -20.3217 83.6299
lradius 61.4533
lwrist 57.3701
lhand -31.3698 22.0115
lfingers 7.12502
lthumb -4.64026 51.9407
rfemur 1.37974 -6.59324 16.4507
rtibia 1.11319e-014
rfoot -9.56568 -12.3922
rtoes 2.0462
lfemur -11.1668 -14.6098 -12.9501
ltibia 22.192
lfoot -24.552 19.2883
ltoes -26.8989
